<svg width="92" height="92" viewBox="0 0 92 92" fill="none" xmlns="http://www.w3.org/2000/svg">
<path fill-rule="evenodd" clip-rule="evenodd" d="M26.8334 60.375C24.1871 60.375 22.0417 62.5203 22.0417 65.1667C22.0417 67.813 24.1871 69.9583 26.8334 69.9583C29.4798 69.9583 31.6251 67.813 31.6251 65.1667C31.6251 62.5203 29.4798 60.375 26.8334 60.375ZM16.2917 65.1667C16.2917 59.3447 21.0114 54.625 26.8334 54.625C32.6554 54.625 37.3751 59.3447 37.3751 65.1667C37.3751 70.9887 32.6554 75.7083 26.8334 75.7083C21.0114 75.7083 16.2917 70.9887 16.2917 65.1667Z" fill="#317AE8"/>
<path fill-rule="evenodd" clip-rule="evenodd" d="M65.1667 60.375C62.5203 60.375 60.375 62.5203 60.375 65.1667C60.375 67.813 62.5203 69.9583 65.1667 69.9583C67.813 69.9583 69.9583 67.813 69.9583 65.1667C69.9583 62.5203 67.813 60.375 65.1667 60.375ZM54.625 65.1667C54.625 59.3447 59.3447 54.625 65.1667 54.625C70.9887 54.625 75.7083 59.3447 75.7083 65.1667C75.7083 70.9887 70.9887 75.7083 65.1667 75.7083C59.3447 75.7083 54.625 70.9887 54.625 65.1667Z" fill="#317AE8"/>
<path fill-rule="evenodd" clip-rule="evenodd" d="M5.03518 18.009C5.49427 16.9654 6.52668 16.2917 7.66681 16.2917H49.8335C51.4213 16.2917 52.7085 17.5789 52.7085 19.1667V20.125H69.0001C70.01 20.125 70.9459 20.6549 71.4654 21.5208L82.9411 40.647C83.0849 40.8775 83.197 41.1298 83.2712 41.3978C83.3459 41.6666 83.3799 41.9415 83.3751 42.214V65.1667C83.3751 66.7545 82.088 68.0417 80.5001 68.0417H72.8335C72.071 68.0417 71.3397 67.7388 70.8005 67.1996L52.7085 49.1075V62.2917H57.5001C59.088 62.2917 60.3751 63.5788 60.3751 65.1667C60.3751 66.7545 59.088 68.0417 57.5001 68.0417H49.8596C49.8426 68.0418 49.8256 68.0418 49.8086 68.0417H34.5001C32.9123 68.0417 31.6251 66.7545 31.6251 65.1667C31.6251 63.5788 32.9123 62.2917 34.5001 62.2917H43.2979L5.54749 21.1094C4.77707 20.2689 4.57609 19.0526 5.03518 18.009ZM46.9585 57.7756L14.2024 22.0417H46.9585V42.1442C46.9584 42.1588 46.9584 42.1733 46.9585 42.1879V57.7756ZM56.7743 45.0417L74.0243 62.2917H77.6251V45.0417H56.7743ZM75.4223 39.2917H52.7085V25.875H67.3723L75.4223 39.2917ZM10.8396 47.0352C12.1373 46.7289 13.4753 47.355 14.0716 48.5476L21.7383 63.8809C22.1839 64.7721 22.1363 65.8305 21.6124 66.6781C21.0886 67.5257 20.1632 68.0417 19.1668 68.0417H11.5001C9.91232 68.0417 8.62514 66.7545 8.62514 65.1667V49.8333C8.62514 48.5 9.54191 47.3416 10.8396 47.0352ZM14.3751 62.012V62.2917H14.515L14.3751 62.012Z" fill="#317AE8"/>
<path fill-rule="evenodd" clip-rule="evenodd" d="M8.625 34.5C8.625 32.9122 9.91218 31.625 11.5 31.625H26.8333C28.4212 31.625 29.7083 32.9122 29.7083 34.5C29.7083 36.0878 28.4212 37.375 26.8333 37.375H11.5C9.91218 37.375 8.625 36.0878 8.625 34.5Z" fill="#317AE8"/>
</svg>
