<svg width="9" height="18" viewBox="0 0 9 18" fill="none" xmlns="http://www.w3.org/2000/svg">
<path d="M7.30753 17.2499C7.13143 17.2505 6.95745 17.2119 6.79835 17.1369C6.63925 17.0619 6.49908 16.9524 6.38814 16.8165L0.518141 9.68926C0.344775 9.47966 0.25 9.21675 0.25 8.94542C0.25 8.6741 0.344775 8.41119 0.518141 8.20158L6.41165 1.17317C6.61172 0.933952 6.89922 0.783515 7.2109 0.754957C7.52258 0.726398 7.83291 0.822057 8.07362 1.02089C8.31433 1.21972 8.4657 1.50544 8.49444 1.81519C8.52318 2.12494 8.42692 2.43335 8.22685 2.67257L2.95805 8.95128L8.22691 15.3288C8.37105 15.5008 8.46261 15.7101 8.49075 15.9322C8.5189 16.1542 8.48246 16.3796 8.38574 16.5817C8.28902 16.7838 8.13607 16.9542 7.94499 17.0726C7.75391 17.191 7.5327 17.2525 7.30753 17.2499Z" fill="#1F1F1F"/>
</svg>
